# xmcd
#
# Track frame offsets: 
#        150
#        26419
#        66782
#        101408
#        133770
#        154604
#        196607
#        230200
#        266561
#        286565
#
# Disc length: 4133 seconds
#
# Revision: 1
# Processed by: cddbd v1.5.2PL0 Copyright (c) Steve Scherf et al.
# Submitted via: ExactAudioCopy v1.5
#
DISCID=7f10230a
DTITLE=Various Artist - Jazz and Tzaz Collection 188  Carla Bley
DYEAR=2008
DGENRE=Jazz
TTITLE0=Carla Bley, Steve Swallow - Sing Me Softly of the Blues
TTITLE1=Carla Bley - End of Vienna
TTITLE2=Carla Bley - Hip Hop
TTITLE3=Carla Bley, The Very Big Carla Bley Big Band - Who Will Rescue
TTITLE3=You
TTITLE4=Carla Bley, Steve Swallow - King Korn
TTITLE5=Carla Bley - Utviklinssang
TTITLE6=Carla Bley - The Lord Is Listenin' to Ya, Hallelujah
TTITLE7=Carla Bley, The Carla Bley Big Band - Tijuana Traffic
TTITLE8=Carla Bley - Walking Batteriewoman
TTITLE9=Carla Bley - Ad Infinitum
EXTD=YEAR: 2008
EXTT0=
EXTT1=
EXTT2=
EXTT3=
EXTT4=
EXTT5=
EXTT6=
EXTT7=
EXTT8=
EXTT9=
PLAYORDER=
